<svg xmlns="http://www.w3.org/2000/svg" xmlns:xlink="http://www.w3.org/1999/xlink" width="500" zoomAndPan="magnify" viewBox="0 0 375 374.999991" height="500" preserveAspectRatio="xMidYMid meet" version="1.0"><defs><clipPath id="c19cc303c5"><path d="M 104.476562 111 L 205 111 L 205 264.863281 L 104.476562 264.863281 Z M 104.476562 111 " clip-rule="nonzero"/></clipPath><clipPath id="17ac1c96bd"><path d="M 104.476562 111 L 205 111 L 205 227 L 104.476562 227 Z M 104.476562 111 " clip-rule="nonzero"/></clipPath><clipPath id="9d786cedd8"><path d="M 240 110.363281 L 270.226562 110.363281 L 270.226562 141 L 240 141 Z M 240 110.363281 " clip-rule="nonzero"/></clipPath><clipPath id="7cc1c10c6c"><path d="M 168 112 L 270.226562 112 L 270.226562 264 L 168 264 Z M 168 112 " clip-rule="nonzero"/></clipPath><clipPath id="e74888acae"><path d="M 168 112 L 270.226562 112 L 270.226562 226 L 168 226 Z M 168 112 " clip-rule="nonzero"/></clipPath></defs><rect x="-37.5" width="450" fill="#ffffff" y="-37.499999" height="449.999989" fill-opacity="1"/><rect x="-37.5" width="450" fill="#000000" y="-37.499999" height="449.999989" fill-opacity="1"/><g clip-path="url(#c19cc303c5)"><path fill="#24ff95" d="M 143.96875 118.089844 L 197.339844 171.460938 C 197.875 171.996094 198.382812 172.554688 198.863281 173.140625 C 199.347656 173.726562 199.796875 174.335938 200.21875 174.964844 C 200.636719 175.597656 201.027344 176.246094 201.386719 176.914062 C 201.742188 177.582031 202.066406 178.265625 202.355469 178.964844 C 202.644531 179.667969 202.902344 180.378906 203.121094 181.105469 C 203.339844 181.828125 203.523438 182.5625 203.671875 183.308594 C 203.820312 184.050781 203.929688 184.800781 204.003906 185.554688 C 204.078125 186.308594 204.117188 187.0625 204.117188 187.820312 C 204.117188 188.578125 204.078125 189.335938 204.003906 190.089844 C 203.929688 190.84375 203.820312 191.589844 203.671875 192.335938 C 203.523438 193.078125 203.339844 193.8125 203.121094 194.539062 C 202.902344 195.261719 202.644531 195.976562 202.355469 196.675781 C 202.066406 197.375 201.742188 198.058594 201.386719 198.726562 C 201.027344 199.398438 200.636719 200.046875 200.21875 200.675781 C 199.796875 201.304688 199.347656 201.914062 198.863281 202.5 C 198.382812 203.085938 197.875 203.644531 197.339844 204.183594 L 143.96875 257.554688 C 129.394531 272.128906 104.464844 261.800781 104.476562 241.175781 L 104.476562 134.433594 C 104.464844 113.84375 129.394531 103.511719 143.96875 118.089844 Z M 143.96875 118.089844 " fill-opacity="1" fill-rule="nonzero"/></g><g clip-path="url(#17ac1c96bd)"><path fill="#24ff95" d="M 143.96875 118.089844 C 129.476562 103.597656 104.832031 113.722656 104.488281 134.089844 C 104.488281 134.089844 188.46875 213.550781 175.113281 226.503906 L 197.386719 204.230469 C 197.921875 203.695312 198.433594 203.132812 198.914062 202.546875 C 199.394531 201.960938 199.84375 201.351562 200.265625 200.722656 C 200.6875 200.09375 201.074219 199.445312 201.433594 198.777344 C 201.789062 198.105469 202.113281 197.421875 202.402344 196.722656 C 202.691406 196.023438 202.949219 195.308594 203.167969 194.585938 C 203.386719 193.859375 203.570312 193.125 203.71875 192.382812 C 203.867188 191.640625 203.980469 190.890625 204.054688 190.136719 C 204.128906 189.382812 204.164062 188.625 204.164062 187.867188 C 204.164062 187.109375 204.128906 186.355469 204.054688 185.601562 C 203.980469 184.847656 203.867188 184.097656 203.71875 183.355469 C 203.570312 182.609375 203.386719 181.875 203.167969 181.152344 C 202.949219 180.425781 202.691406 179.714844 202.402344 179.015625 C 202.113281 178.3125 201.789062 177.628906 201.433594 176.960938 C 201.074219 176.292969 200.6875 175.644531 200.265625 175.011719 C 199.84375 174.382812 199.394531 173.777344 198.914062 173.191406 C 198.433594 172.605469 197.921875 172.042969 197.386719 171.507812 Z M 143.96875 118.089844 " fill-opacity="1" fill-rule="nonzero"/></g><g clip-path="url(#9d786cedd8)"><path fill="#24ff95" d="M 270.519531 125.65625 C 270.519531 126.648438 270.421875 127.632812 270.226562 128.605469 C 270.035156 129.578125 269.746094 130.523438 269.367188 131.441406 C 268.988281 132.359375 268.519531 133.230469 267.96875 134.058594 C 267.417969 134.882812 266.789062 135.644531 266.089844 136.347656 C 265.386719 137.050781 264.621094 137.675781 263.796875 138.230469 C 262.972656 138.78125 262.101562 139.246094 261.183594 139.625 C 260.265625 140.007812 259.320312 140.292969 258.347656 140.488281 C 257.371094 140.679688 256.390625 140.777344 255.394531 140.777344 C 254.402344 140.777344 253.417969 140.679688 252.445312 140.488281 C 251.472656 140.292969 250.527344 140.007812 249.609375 139.625 C 248.691406 139.246094 247.820312 138.78125 246.996094 138.230469 C 246.167969 137.675781 245.40625 137.050781 244.703125 136.347656 C 244 135.644531 243.375 134.882812 242.824219 134.058594 C 242.269531 133.230469 241.804688 132.359375 241.425781 131.441406 C 241.046875 130.523438 240.757812 129.578125 240.566406 128.605469 C 240.371094 127.632812 240.273438 126.648438 240.273438 125.65625 C 240.273438 124.664062 240.371094 123.679688 240.566406 122.707031 C 240.757812 121.730469 241.046875 120.785156 241.425781 119.867188 C 241.804688 118.953125 242.269531 118.078125 242.824219 117.253906 C 243.375 116.429688 244 115.664062 244.703125 114.964844 C 245.40625 114.261719 246.167969 113.632812 246.996094 113.082031 C 247.820312 112.53125 248.691406 112.066406 249.609375 111.683594 C 250.527344 111.304688 251.472656 111.019531 252.445312 110.824219 C 253.417969 110.628906 254.402344 110.535156 255.394531 110.535156 C 256.390625 110.535156 257.371094 110.628906 258.347656 110.824219 C 259.320312 111.019531 260.265625 111.304688 261.183594 111.683594 C 262.101562 112.066406 262.972656 112.53125 263.796875 113.082031 C 264.621094 113.632812 265.386719 114.261719 266.089844 114.964844 C 266.789062 115.664062 267.417969 116.429688 267.96875 117.253906 C 268.519531 118.078125 268.988281 118.953125 269.367188 119.867188 C 269.746094 120.785156 270.035156 121.730469 270.226562 122.707031 C 270.421875 123.679688 270.519531 124.664062 270.519531 125.65625 Z M 270.519531 125.65625 " fill-opacity="1" fill-rule="nonzero"/><path fill="#24ff95" d="M 270.519531 125.65625 C 270.519531 126.648438 270.421875 127.632812 270.226562 128.605469 C 270.035156 129.578125 269.746094 130.523438 269.367188 131.441406 C 268.988281 132.359375 268.519531 133.230469 267.96875 134.058594 C 267.417969 134.882812 266.789062 135.644531 266.089844 136.347656 C 265.386719 137.050781 264.621094 137.675781 263.796875 138.230469 C 262.972656 138.78125 262.101562 139.246094 261.183594 139.625 C 260.265625 140.007812 259.320312 140.292969 258.347656 140.488281 C 257.371094 140.679688 256.390625 140.777344 255.394531 140.777344 C 254.402344 140.777344 253.417969 140.679688 252.445312 140.488281 C 251.472656 140.292969 250.527344 140.007812 249.609375 139.625 C 248.691406 139.246094 247.820312 138.78125 246.996094 138.230469 C 246.167969 137.675781 245.40625 137.050781 244.703125 136.347656 C 244 135.644531 243.375 134.882812 242.824219 134.058594 C 242.269531 133.230469 241.804688 132.359375 241.425781 131.441406 C 241.046875 130.523438 240.757812 129.578125 240.566406 128.605469 C 240.371094 127.632812 240.273438 126.648438 240.273438 125.65625 C 240.273438 124.664062 240.371094 123.679688 240.566406 122.707031 C 240.757812 121.730469 241.046875 120.785156 241.425781 119.867188 C 241.804688 118.953125 242.269531 118.078125 242.824219 117.253906 C 243.375 116.429688 244 115.664062 244.703125 114.964844 C 245.40625 114.261719 246.167969 113.632812 246.996094 113.082031 C 247.820312 112.53125 248.691406 112.066406 249.609375 111.683594 C 250.527344 111.304688 251.472656 111.019531 252.445312 110.824219 C 253.417969 110.628906 254.402344 110.535156 255.394531 110.535156 C 256.390625 110.535156 257.371094 110.628906 258.347656 110.824219 C 259.320312 111.019531 260.265625 111.304688 261.183594 111.683594 C 262.101562 112.066406 262.972656 112.53125 263.796875 113.082031 C 264.621094 113.632812 265.386719 114.261719 266.089844 114.964844 C 266.789062 115.664062 267.417969 116.429688 267.96875 117.253906 C 268.519531 118.078125 268.988281 118.953125 269.367188 119.867188 C 269.746094 120.785156 270.035156 121.730469 270.226562 122.707031 C 270.421875 123.679688 270.519531 124.664062 270.519531 125.65625 Z M 270.519531 125.65625 " fill-opacity="1" fill-rule="nonzero"/></g><g clip-path="url(#7cc1c10c6c)"><path fill="#ffffff" d="M 263.734375 171.589844 L 210.363281 118.21875 C 196.035156 103.878906 157.847656 120.507812 170.914062 133.578125 L 209.296875 171.96875 C 209.832031 172.503906 210.339844 173.066406 210.820312 173.652344 C 211.300781 174.238281 211.753906 174.84375 212.175781 175.472656 C 212.59375 176.105469 212.984375 176.753906 213.34375 177.421875 C 213.699219 178.089844 214.023438 178.773438 214.3125 179.472656 C 214.605469 180.171875 214.859375 180.882812 215.078125 181.609375 C 215.300781 182.335938 215.484375 183.070312 215.632812 183.8125 C 215.777344 184.554688 215.890625 185.304688 215.964844 186.058594 C 216.039062 186.8125 216.074219 187.566406 216.074219 188.324219 C 216.074219 189.082031 216.039062 189.839844 215.964844 190.59375 C 215.890625 191.347656 215.777344 192.09375 215.632812 192.839844 C 215.484375 193.582031 215.300781 194.316406 215.078125 195.039062 C 214.859375 195.765625 214.605469 196.476562 214.3125 197.175781 C 214.023438 197.878906 213.699219 198.5625 213.34375 199.230469 C 212.984375 199.898438 212.59375 200.546875 212.175781 201.175781 C 211.753906 201.804688 211.300781 202.414062 210.820312 203 C 210.339844 203.585938 209.832031 204.144531 209.296875 204.679688 L 170.941406 243.046875 C 159.246094 254.730469 196.179688 271.964844 210.363281 257.777344 L 263.734375 204.40625 C 264.273438 203.871094 264.785156 203.308594 265.269531 202.722656 C 265.753906 202.136719 266.207031 201.527344 266.628906 200.894531 C 267.054688 200.265625 267.445312 199.613281 267.804688 198.941406 C 268.164062 198.273438 268.492188 197.585938 268.785156 196.882812 C 269.074219 196.183594 269.332031 195.46875 269.554688 194.738281 C 269.777344 194.011719 269.960938 193.273438 270.109375 192.53125 C 270.257812 191.785156 270.371094 191.03125 270.445312 190.273438 C 270.519531 189.519531 270.558594 188.757812 270.558594 188 C 270.558594 187.238281 270.519531 186.480469 270.445312 185.722656 C 270.371094 184.964844 270.257812 184.214844 270.109375 183.46875 C 269.960938 182.722656 269.777344 181.984375 269.554688 181.257812 C 269.332031 180.53125 269.074219 179.816406 268.785156 179.113281 C 268.492188 178.410156 268.164062 177.726562 267.804688 177.054688 C 267.445312 176.382812 267.054688 175.734375 266.628906 175.101562 C 266.207031 174.46875 265.753906 173.863281 265.269531 173.273438 C 264.785156 172.6875 264.273438 172.125 263.734375 171.589844 Z M 263.734375 171.589844 " fill-opacity="1" fill-rule="nonzero"/></g><g clip-path="url(#e74888acae)"><path fill="#ffffff" d="M 263.734375 171.589844 L 210.363281 118.21875 C 196.035156 103.878906 157.847656 120.507812 170.914062 133.578125 L 209.296875 171.96875 C 211.148438 173.820312 212.640625 175.925781 213.777344 178.285156 C 214.914062 180.644531 215.625 183.125 215.914062 185.726562 C 229.136719 201.253906 240.132812 216.328125 242.421875 225.71875 L 263.769531 204.371094 C 264.308594 203.835938 264.816406 203.273438 265.296875 202.6875 C 265.78125 202.097656 266.234375 201.492188 266.65625 200.859375 C 267.078125 200.226562 267.46875 199.578125 267.824219 198.90625 C 268.183594 198.238281 268.507812 197.550781 268.796875 196.847656 C 269.089844 196.148438 269.34375 195.433594 269.5625 194.707031 C 269.785156 193.980469 269.96875 193.242188 270.117188 192.5 C 270.265625 191.753906 270.375 191.003906 270.449219 190.246094 C 270.523438 189.492188 270.558594 188.734375 270.558594 187.972656 C 270.558594 187.214844 270.519531 186.457031 270.445312 185.699219 C 270.367188 184.945312 270.253906 184.195312 270.105469 183.449219 C 269.957031 182.707031 269.769531 181.96875 269.550781 181.242188 C 269.328125 180.515625 269.070312 179.804688 268.777344 179.101562 C 268.488281 178.402344 268.160156 177.714844 267.800781 177.046875 C 267.441406 176.378906 267.050781 175.726562 266.628906 175.097656 C 266.203125 174.464844 265.75 173.859375 265.265625 173.273438 C 264.785156 172.6875 264.273438 172.125 263.734375 171.589844 Z M 263.734375 171.589844 " fill-opacity="1" fill-rule="nonzero"/></g></svg>