<svg xmlns="http://www.w3.org/2000/svg" xmlns:xlink="http://www.w3.org/1999/xlink" width="500" zoomAndPan="magnify" viewBox="0 0 375 374.999991" height="500" preserveAspectRatio="xMidYMid meet" version="1.0"><defs><clipPath id="b61c347fd4"><path d="M 102.585938 109 L 205 109 L 205 266.105469 L 102.585938 266.105469 Z M 102.585938 109 " clip-rule="nonzero"/></clipPath><clipPath id="a05eae2071"><path d="M 102.585938 109 L 205 109 L 205 228 L 102.585938 228 Z M 102.585938 109 " clip-rule="nonzero"/></clipPath><clipPath id="d2196b7bcf"><path d="M 241 108.605469 L 272.085938 108.605469 L 272.085938 140 L 241 140 Z M 241 108.605469 " clip-rule="nonzero"/></clipPath><clipPath id="94660d8d99"><path d="M 167 110 L 272.085938 110 L 272.085938 265 L 167 265 Z M 167 110 " clip-rule="nonzero"/></clipPath><clipPath id="4f1bf27bb7"><path d="M 167 110 L 272.085938 110 L 272.085938 227 L 167 227 Z M 167 110 " clip-rule="nonzero"/></clipPath></defs><rect x="-37.5" width="450" fill="#ffffff" y="-37.499999" height="449.999989" fill-opacity="1"/><rect x="-37.5" width="450" fill="#ffffff" y="-37.499999" height="449.999989" fill-opacity="1"/><g clip-path="url(#b61c347fd4)"><path fill="#24ff95" d="M 142.980469 116.507812 L 197.566406 171.097656 C 198.117188 171.644531 198.636719 172.21875 199.128906 172.816406 C 199.621094 173.417969 200.082031 174.039062 200.511719 174.683594 C 200.941406 175.328125 201.339844 175.992188 201.703125 176.675781 C 202.070312 177.359375 202.402344 178.058594 202.699219 178.773438 C 202.996094 179.492188 203.253906 180.21875 203.480469 180.960938 C 203.703125 181.703125 203.894531 182.453125 204.042969 183.214844 C 204.195312 183.972656 204.308594 184.738281 204.386719 185.511719 C 204.460938 186.28125 204.5 187.054688 204.5 187.832031 C 204.5 188.605469 204.460938 189.378906 204.386719 190.152344 C 204.308594 190.921875 204.195312 191.6875 204.042969 192.449219 C 203.894531 193.207031 203.703125 193.957031 203.480469 194.699219 C 203.253906 195.441406 202.996094 196.171875 202.699219 196.886719 C 202.402344 197.601562 202.070312 198.304688 201.703125 198.988281 C 201.339844 199.671875 200.941406 200.335938 200.511719 200.980469 C 200.082031 201.625 199.621094 202.246094 199.128906 202.84375 C 198.636719 203.445312 198.117188 204.015625 197.566406 204.566406 L 142.980469 259.152344 C 128.070312 274.0625 102.574219 263.496094 102.585938 242.398438 L 102.585938 133.226562 C 102.574219 112.167969 128.070312 101.601562 142.980469 116.507812 Z M 142.980469 116.507812 " fill-opacity="1" fill-rule="nonzero"/></g><g clip-path="url(#a05eae2071)"><path fill="#24ff95" d="M 142.980469 116.507812 C 128.15625 101.6875 102.949219 112.046875 102.597656 132.875 C 102.597656 132.875 188.496094 214.148438 174.835938 227.394531 L 197.617188 204.613281 C 198.164062 204.066406 198.683594 203.492188 199.175781 202.894531 C 199.667969 202.292969 200.128906 201.671875 200.558594 201.027344 C 200.988281 200.382812 201.386719 199.71875 201.753906 199.035156 C 202.117188 198.351562 202.449219 197.652344 202.746094 196.9375 C 203.042969 196.21875 203.304688 195.492188 203.527344 194.75 C 203.753906 194.007812 203.941406 193.257812 204.09375 192.496094 C 204.242188 191.734375 204.359375 190.96875 204.433594 190.199219 C 204.507812 189.425781 204.546875 188.65625 204.546875 187.878906 C 204.546875 187.105469 204.507812 186.332031 204.433594 185.558594 C 204.359375 184.789062 204.242188 184.023438 204.09375 183.261719 C 203.941406 182.503906 203.753906 181.75 203.527344 181.007812 C 203.304688 180.269531 203.042969 179.539062 202.746094 178.824219 C 202.449219 178.105469 202.117188 177.40625 201.753906 176.722656 C 201.386719 176.039062 200.988281 175.375 200.558594 174.730469 C 200.128906 174.085938 199.667969 173.464844 199.175781 172.867188 C 198.683594 172.265625 198.164062 171.691406 197.617188 171.144531 Z M 142.980469 116.507812 " fill-opacity="1" fill-rule="nonzero"/></g><g clip-path="url(#d2196b7bcf)"><path fill="#24ff95" d="M 272.414062 124.25 C 272.414062 125.265625 272.316406 126.269531 272.117188 127.265625 C 271.917969 128.261719 271.625 129.230469 271.234375 130.167969 C 270.847656 131.105469 270.371094 131.996094 269.808594 132.839844 C 269.242188 133.6875 268.601562 134.46875 267.882812 135.183594 C 267.164062 135.902344 266.382812 136.542969 265.539062 137.109375 C 264.695312 137.671875 263.804688 138.148438 262.867188 138.539062 C 261.925781 138.925781 260.960938 139.21875 259.964844 139.417969 C 258.96875 139.617188 257.960938 139.714844 256.945312 139.714844 C 255.929688 139.714844 254.925781 139.617188 253.929688 139.417969 C 252.933594 139.21875 251.964844 138.925781 251.027344 138.539062 C 250.089844 138.148438 249.199219 137.671875 248.355469 137.109375 C 247.511719 136.542969 246.730469 135.902344 246.011719 135.183594 C 245.292969 134.46875 244.652344 133.6875 244.085938 132.839844 C 243.523438 131.996094 243.046875 131.105469 242.65625 130.167969 C 242.269531 129.230469 241.976562 128.261719 241.777344 127.265625 C 241.578125 126.269531 241.480469 125.265625 241.480469 124.25 C 241.480469 123.234375 241.578125 122.226562 241.777344 121.230469 C 241.976562 120.234375 242.269531 119.269531 242.65625 118.328125 C 243.046875 117.390625 243.523438 116.5 244.085938 115.65625 C 244.652344 114.8125 245.292969 114.03125 246.011719 113.3125 C 246.730469 112.59375 247.511719 111.953125 248.355469 111.386719 C 249.199219 110.824219 250.089844 110.347656 251.027344 109.960938 C 251.964844 109.570312 252.933594 109.277344 253.929688 109.078125 C 254.925781 108.882812 255.929688 108.78125 256.945312 108.78125 C 257.960938 108.78125 258.96875 108.882812 259.964844 109.078125 C 260.960938 109.277344 261.925781 109.570312 262.867188 109.960938 C 263.804688 110.347656 264.695312 110.824219 265.539062 111.386719 C 266.382812 111.953125 267.164062 112.59375 267.882812 113.3125 C 268.601562 114.03125 269.242188 114.8125 269.808594 115.65625 C 270.371094 116.5 270.847656 117.390625 271.234375 118.328125 C 271.625 119.269531 271.917969 120.234375 272.117188 121.230469 C 272.316406 122.226562 272.414062 123.234375 272.414062 124.25 Z M 272.414062 124.25 " fill-opacity="1" fill-rule="nonzero"/><path fill="#24ff95" d="M 272.414062 124.25 C 272.414062 125.265625 272.316406 126.269531 272.117188 127.265625 C 271.917969 128.261719 271.625 129.230469 271.234375 130.167969 C 270.847656 131.105469 270.371094 131.996094 269.808594 132.839844 C 269.242188 133.6875 268.601562 134.46875 267.882812 135.183594 C 267.164062 135.902344 266.382812 136.542969 265.539062 137.109375 C 264.695312 137.671875 263.804688 138.148438 262.867188 138.539062 C 261.925781 138.925781 260.960938 139.21875 259.964844 139.417969 C 258.96875 139.617188 257.960938 139.714844 256.945312 139.714844 C 255.929688 139.714844 254.925781 139.617188 253.929688 139.417969 C 252.933594 139.21875 251.964844 138.925781 251.027344 138.539062 C 250.089844 138.148438 249.199219 137.671875 248.355469 137.109375 C 247.511719 136.542969 246.730469 135.902344 246.011719 135.183594 C 245.292969 134.46875 244.652344 133.6875 244.085938 132.839844 C 243.523438 131.996094 243.046875 131.105469 242.65625 130.167969 C 242.269531 129.230469 241.976562 128.261719 241.777344 127.265625 C 241.578125 126.269531 241.480469 125.265625 241.480469 124.25 C 241.480469 123.234375 241.578125 122.226562 241.777344 121.230469 C 241.976562 120.234375 242.269531 119.269531 242.65625 118.328125 C 243.046875 117.390625 243.523438 116.5 244.085938 115.65625 C 244.652344 114.8125 245.292969 114.03125 246.011719 113.3125 C 246.730469 112.59375 247.511719 111.953125 248.355469 111.386719 C 249.199219 110.824219 250.089844 110.347656 251.027344 109.960938 C 251.964844 109.570312 252.933594 109.277344 253.929688 109.078125 C 254.925781 108.882812 255.929688 108.78125 256.945312 108.78125 C 257.960938 108.78125 258.96875 108.882812 259.964844 109.078125 C 260.960938 109.277344 261.925781 109.570312 262.867188 109.960938 C 263.804688 110.347656 264.695312 110.824219 265.539062 111.386719 C 266.382812 111.953125 267.164062 112.59375 267.882812 113.3125 C 268.601562 114.03125 269.242188 114.8125 269.808594 115.65625 C 270.371094 116.5 270.847656 117.390625 271.234375 118.328125 C 271.625 119.269531 271.917969 120.234375 272.117188 121.230469 C 272.316406 122.226562 272.414062 123.234375 272.414062 124.25 Z M 272.414062 124.25 " fill-opacity="1" fill-rule="nonzero"/></g><g clip-path="url(#94660d8d99)"><path fill="#000000" d="M 265.476562 171.230469 L 210.886719 116.644531 C 196.234375 101.976562 157.171875 118.984375 170.542969 132.351562 L 209.796875 171.617188 C 210.34375 172.164062 210.863281 172.738281 211.355469 173.339844 C 211.847656 173.9375 212.308594 174.558594 212.738281 175.203125 C 213.171875 175.847656 213.570312 176.511719 213.933594 177.195312 C 214.300781 177.875 214.632812 178.578125 214.929688 179.292969 C 215.226562 180.007812 215.484375 180.738281 215.710938 181.476562 C 215.9375 182.21875 216.125 182.96875 216.277344 183.730469 C 216.425781 184.492188 216.539062 185.257812 216.617188 186.027344 C 216.691406 186.796875 216.730469 187.570312 216.730469 188.347656 C 216.730469 189.121094 216.691406 189.894531 216.617188 190.664062 C 216.539062 191.4375 216.425781 192.203125 216.277344 192.960938 C 216.125 193.722656 215.9375 194.472656 215.710938 195.214844 C 215.484375 195.957031 215.226562 196.683594 214.929688 197.402344 C 214.632812 198.117188 214.300781 198.816406 213.933594 199.5 C 213.570312 200.183594 213.171875 200.847656 212.738281 201.492188 C 212.308594 202.132812 211.847656 202.757812 211.355469 203.355469 C 210.863281 203.953125 210.34375 204.527344 209.796875 205.074219 L 170.566406 244.316406 C 158.605469 256.265625 196.378906 273.890625 210.886719 259.382812 L 265.476562 204.796875 C 266.027344 204.246094 266.550781 203.671875 267.046875 203.074219 C 267.539062 202.472656 268.003906 201.847656 268.4375 201.203125 C 268.871094 200.558594 269.273438 199.890625 269.640625 199.207031 C 270.007812 198.519531 270.339844 197.820312 270.640625 197.101562 C 270.9375 196.382812 271.203125 195.652344 271.429688 194.90625 C 271.65625 194.164062 271.84375 193.410156 271.996094 192.648438 C 272.148438 191.882812 272.261719 191.117188 272.339844 190.339844 C 272.417969 189.566406 272.453125 188.789062 272.453125 188.011719 C 272.453125 187.234375 272.417969 186.457031 272.339844 185.683594 C 272.261719 184.910156 272.148438 184.140625 271.996094 183.378906 C 271.84375 182.617188 271.65625 181.863281 271.429688 181.117188 C 271.203125 180.375 270.9375 179.644531 270.640625 178.925781 C 270.339844 178.207031 270.007812 177.503906 269.640625 176.820312 C 269.273438 176.132812 268.871094 175.46875 268.4375 174.820312 C 268.003906 174.175781 267.539062 173.554688 267.046875 172.953125 C 266.550781 172.351562 266.027344 171.777344 265.476562 171.230469 Z M 265.476562 171.230469 " fill-opacity="1" fill-rule="nonzero"/></g><g clip-path="url(#4f1bf27bb7)"><path fill="#000000" d="M 265.476562 171.230469 L 210.886719 116.644531 C 196.234375 101.976562 157.171875 118.984375 170.542969 132.351562 L 209.796875 171.617188 C 211.691406 173.511719 213.21875 175.664062 214.378906 178.078125 C 215.539062 180.492188 216.269531 183.027344 216.566406 185.691406 C 230.089844 201.570312 241.335938 216.988281 243.675781 226.59375 L 265.511719 204.757812 C 266.0625 204.210938 266.582031 203.636719 267.074219 203.035156 C 267.570312 202.433594 268.03125 201.8125 268.460938 201.167969 C 268.894531 200.519531 269.292969 199.855469 269.660156 199.167969 C 270.027344 198.484375 270.359375 197.78125 270.65625 197.066406 C 270.953125 196.347656 271.214844 195.617188 271.4375 194.875 C 271.664062 194.128906 271.851562 193.378906 272.003906 192.613281 C 272.152344 191.851562 272.265625 191.085938 272.34375 190.3125 C 272.417969 189.539062 272.457031 188.765625 272.453125 187.988281 C 272.453125 187.210938 272.414062 186.433594 272.335938 185.664062 C 272.261719 184.890625 272.144531 184.121094 271.992188 183.359375 C 271.839844 182.597656 271.648438 181.847656 271.421875 181.101562 C 271.195312 180.359375 270.933594 179.628906 270.636719 178.914062 C 270.335938 178.195312 270.003906 177.496094 269.636719 176.8125 C 269.269531 176.125 268.867188 175.460938 268.433594 174.816406 C 268 174.171875 267.539062 173.550781 267.042969 172.949219 C 266.546875 172.351562 266.027344 171.777344 265.476562 171.230469 Z M 265.476562 171.230469 " fill-opacity="1" fill-rule="nonzero"/></g></svg>